<svg width="596" height="500" viewBox="0 0 596 500" fill="none" xmlns="http://www.w3.org/2000/svg">
<path fill-rule="evenodd" clip-rule="evenodd" d="M15.0513 360.025C-37.797 254.822 53.3828 45.3211 212.531 157.106C371.678 268.89 479.828 184.86 543.061 227.473C606.295 270.086 614.619 416.323 418.77 477.703C222.921 539.082 67.8995 465.228 15.0513 360.025Z" fill="#DAFFCD"/>
<mask id="mask0_0_6" style="mask-type:luminance" maskUnits="userSpaceOnUse" x="61" y="31" width="535" height="467">
<path fill-rule="evenodd" clip-rule="evenodd" d="M83.4714 439.081C83.4714 439.081 198.038 515.339 340.105 493.065C482.171 470.792 535.537 413.012 535.537 413.012L499.259 255.342C499.259 255.342 579.128 197.73 590.138 136.084C601.148 74.4379 594.409 32.3552 560.625 32.3552C526.841 32.3552 478.495 145.059 452.895 140.765C427.294 136.472 419.874 76.7077 390.884 92.9093C361.895 109.111 372.201 20.1451 311.792 32.3552C251.382 44.5653 296.871 113.962 238.487 92.9093C180.104 71.8567 133.267 86.9137 117.544 125.593C101.822 164.271 45.0977 210.591 65.5845 279.028C86.0714 347.465 99.2963 341.813 97.2529 383.865C95.2095 425.918 83.4714 439.081 83.4714 439.081Z" fill="white"/>
</mask>
<g mask="url(#mask0_0_6)">
<path fill-rule="evenodd" clip-rule="evenodd" d="M152.476 279.028C152.476 279.028 145.572 289.354 143.504 324.649C141.435 359.945 137.836 571.41 137.836 571.41H171.405C171.405 571.41 185.365 433.813 187.471 407.356C189.577 380.899 201.747 280.888 201.747 280.888L152.476 279.028Z" fill="#6FBF44"/>
<path fill-rule="evenodd" clip-rule="evenodd" d="M195.263 333.815L184.85 323.018L168.6 571.411H171.405L195.263 333.815Z" fill="#2B8C6B"/>
<path d="M195.263 334.465L183.676 320.782" stroke="white" stroke-width="1.3" stroke-linecap="round"/>
<path d="M155.238 280.888C155.238 280.888 145.572 323.145 145.572 365.128C145.572 407.11 140.671 570.948 140.671 570.948" stroke="white" stroke-width="1.3" stroke-linecap="round"/>
<path fill-rule="evenodd" clip-rule="evenodd" d="M236.742 278.565C236.742 278.565 246.659 304.627 246.659 328.718C246.659 352.808 251.382 570.948 251.382 570.948H217.813C217.813 570.948 207.179 433.813 205.073 407.356C202.967 380.899 187.471 280.425 187.471 280.425L236.742 278.565Z" fill="#6FBF44"/>
<path d="M229.576 279.028C229.576 279.028 238.77 305.053 241.408 343.702C244.046 382.351 247.399 570.948 247.399 570.948" stroke="white" stroke-width="1.3" stroke-linecap="round"/>
<path fill-rule="evenodd" clip-rule="evenodd" d="M152.476 280.888C152.476 280.888 174.153 283.791 197.2 283.791C220.247 283.791 235.681 280.888 235.681 280.888H152.476Z" fill="white"/>
<path fill-rule="evenodd" clip-rule="evenodd" d="M176.566 173.347C176.566 173.347 143.734 176.099 130.376 186.601C117.018 197.102 95.2095 238.597 95.2095 238.597L123.639 259.715L138.256 238.597C138.256 238.597 141.491 272.358 152.476 280.888H235.681C235.681 280.888 248.495 269.602 252.587 238.597L302.906 234.365L299.624 194.625C299.624 194.625 248.734 172.601 202.715 173.431L176.566 173.347Z" fill="url(#paint0_linear_0_6)"/>
<path fill-rule="evenodd" clip-rule="evenodd" d="M101.731 232.568C97.7144 230.212 94.4279 235.497 90.7926 240.879C87.1572 246.261 84.3979 246.428 90.2804 250.066C96.1629 253.704 116.654 272.861 120.007 270.003C123.36 267.145 123.073 258.855 125.79 258.278C128.507 257.7 132.579 256.081 126.873 250.012C121.167 243.944 105.747 234.923 101.731 232.568Z" fill="#6FBF44"/>
<path fill-rule="evenodd" clip-rule="evenodd" d="M281.102 217.131C281.102 228.209 284.16 238.181 304.273 238.209C324.386 238.236 329.441 209.436 324.317 200.893C319.193 192.35 311.537 178.562 297.849 182.745C284.16 186.928 281.102 206.052 281.102 217.131Z" fill="#6FBF44"/>
<path fill-rule="evenodd" clip-rule="evenodd" d="M321.002 199.433C319.706 211.768 315.32 226.933 302.605 225.596C289.891 224.26 285.585 201.517 291.782 174.418C297.978 147.318 308.836 103.23 308.836 103.23L308.551 102.816C303.253 95.1409 299.493 86.5117 297.479 77.4059L294.457 71.2722C293.986 70.3148 294.308 69.1559 295.207 68.5796C295.941 68.1087 296.889 68.1411 297.59 68.6609L301.083 71.2546C302.026 71.9544 302.811 72.8442 303.389 73.8663L307.531 81.1992L307.499 52.8845C307.497 51.6177 308.46 50.5576 309.721 50.4371C311.056 50.3094 312.247 51.2767 312.395 52.6098L314.647 72.8245L318.825 49.3885C319.066 48.039 320.308 47.1047 321.671 47.248C323.05 47.3929 324.076 48.5894 324.008 49.9743L322.854 73.6872L329.706 56.0938C330.188 54.855 331.561 54.216 332.82 54.6443C334.091 55.0771 334.792 56.4337 334.399 57.7184C332.676 63.3498 328.431 77.3392 328.979 76.6786C329.491 76.06 332.636 70.2937 334.184 67.4358C334.676 66.527 335.766 66.1226 336.731 66.4923C337.772 66.891 338.305 68.0471 337.932 69.0976L330.447 90.1932L326.684 104.194C326.684 104.194 322.299 187.097 321.002 199.433Z" fill="#FFD1AB"/>
<path d="M308.072 79.9682C308.072 79.9682 320.052 87.7613 319.511 92.9093" stroke="white" stroke-width="1.3" stroke-linecap="round"/>
<path d="M330.78 77.019C330.78 77.019 323.614 71.7648 312.07 72.3784" stroke="white" stroke-width="1.3" stroke-linecap="round"/>
<path fill-rule="evenodd" clip-rule="evenodd" d="M174.018 140.877C174.018 140.877 177.252 150.678 175.635 160.377C174.018 170.076 174.018 173.836 171.405 175.386C171.405 175.386 181.236 183.93 190.977 183.93C200.717 183.93 209.679 175.386 209.679 175.386C209.679 175.386 203.924 173.304 203.924 162.254C203.924 151.204 204.707 137.756 204.707 137.756L174.018 140.877Z" fill="#FFD1AB"/>
<path fill-rule="evenodd" clip-rule="evenodd" d="M204.226 147.612C204.025 152.801 203.924 157.681 203.924 162.254C203.924 167.424 204.869 171.122 206.758 173.347C188.019 166.021 177.841 160.857 176.226 157.853C176.283 156.247 176.255 154.673 176.167 153.173C176.142 151.798 176.044 150.422 175.873 149.044L204.226 147.612Z" fill="#CF8B54"/>
<path fill-rule="evenodd" clip-rule="evenodd" d="M169.93 139.64C163.2 129.307 161.112 109.823 175.766 105.529C176.761 90.839 210.11 97.1888 214.354 112.842C218.597 128.495 209.866 150.658 197.584 153.312C185.302 155.966 176.66 149.973 169.93 139.64Z" fill="#18233D"/>
<path d="M182.376 106.965C182.376 106.965 194.783 111.257 202.715 111.257" stroke="white" stroke-width="1.3" stroke-linecap="round"/>
<path fill-rule="evenodd" clip-rule="evenodd" d="M176.566 114.162C180.513 112.63 191.147 116.193 195.761 116.983C199.43 117.612 204.385 118.68 206.758 115.071C206.02 134.938 207.692 129.351 209.752 129.574C210.171 129.448 210.615 129.38 211.075 129.38C213.667 129.38 215.768 131.528 215.768 134.178C215.768 136.827 213.667 138.975 211.075 138.975C209.866 138.975 208.765 138.508 207.933 137.741C207.939 146.148 204.391 162.055 189.796 162.055C175.202 162.055 173.627 148.989 171.867 137.408C171.549 137.478 171.218 137.515 170.879 137.515C168.287 137.515 166.186 135.367 166.186 132.718C166.186 130.068 168.287 127.92 170.879 127.92C171.062 127.92 171.022 130.444 171.867 130.148C174.325 128.801 173.878 121.914 176.566 114.162Z" fill="#FFD1AB"/>
<path d="M185.361 149.045C185.361 149.045 187.436 151.645 191.861 149.045" stroke="#18233D" stroke-width="1.3" stroke-linecap="round"/>
<path d="M188.2 131.435C189.121 134.907 186.193 142.202 185.592 144.116C184.992 146.03 188.434 144.116 188.434 144.116" stroke="#18233D" stroke-width="1.3" stroke-linecap="round"/>
<path d="M193.422 127.524C193.422 127.524 197.524 125.573 201.747 128.269" stroke="#18233D" stroke-width="1.3" stroke-linecap="round"/>
<path d="M176.651 127.939C176.651 127.939 180.525 125.571 185.009 127.813" stroke="#18233D" stroke-width="1.3" stroke-linecap="round"/>
<ellipse cx="197.066" cy="131.446" rx="1.30478" ry="1.29794" fill="#18233D"/>
<ellipse cx="181.408" cy="131.446" rx="1.30478" ry="1.29794" fill="#18233D"/>
<path d="M209.679 135.339L212.288 134.474" stroke="#18233D" stroke-width="1.3" stroke-linecap="round"/>
<path d="M171.405 133.609L168.796 132.744" stroke="#18233D" stroke-width="1.3" stroke-linecap="round"/>
<path d="M215.44 126.705L217.476 136.472" stroke="white" stroke-width="1.3" stroke-linecap="round"/>
<rect x="184.85" y="200.638" width="24.7" height="45.5" rx="1.3" fill="#FE8B6E"/>
<path fill-rule="evenodd" clip-rule="evenodd" d="M90.2804 250.066C90.2804 250.066 78.4294 284.57 99.9464 291.028C121.463 297.486 182.647 244.83 182.647 244.83C182.647 244.83 199.331 241.544 201.747 232.533C204.163 223.521 205.073 215.058 205.073 215.058L184.836 224.348V217.848C184.836 217.848 179.753 220.157 177.331 226.642C165.443 232.633 104.115 259.715 104.115 259.715L90.2804 250.066Z" fill="#FFD1AB"/>
<path d="M204.371 221.365C204.371 221.365 199.277 225.547 196.571 226.565" stroke="#18233D" stroke-width="1.3" stroke-linecap="round"/>
<path d="M204.371 225.265C204.371 225.265 199.277 229.447 196.571 230.465" stroke="#18233D" stroke-width="1.3" stroke-linecap="round"/>
<path d="M201.771 231.765C201.771 231.765 198.375 234.901 196.571 235.665" stroke="#18233D" stroke-width="1.3" stroke-linecap="round"/>
<path d="M97.2529 262.281C97.2529 262.281 126.755 249.588 137.836 244.092" stroke="white" stroke-width="1.3" stroke-linecap="round"/>
<path fill-rule="evenodd" clip-rule="evenodd" d="M391.829 136.01C391.829 136.01 379.589 135.271 376.736 145.193C373.882 155.114 375.036 195.407 364.245 205.013C353.454 214.619 381.477 237.638 414.516 228.265C447.555 218.893 445.941 208.505 441.268 200.349C436.595 192.194 436.048 152.868 421.785 137.207C407.522 121.546 391.829 136.01 391.829 136.01Z" fill="#18233D"/>
<path fill-rule="evenodd" clip-rule="evenodd" d="M359.752 288.366C359.752 288.366 349.86 341.515 357.264 370.405C364.667 399.295 378.854 455.903 378.854 455.903C378.854 455.903 370.444 475.553 370.444 506.565C370.444 537.578 366.474 571.065 366.474 571.065H389.099C389.099 571.065 412.029 466.997 415.071 442.884C416.264 433.434 408.448 389.376 406.559 353.179C405.235 327.802 407.783 278.565 407.783 278.565L359.752 288.366Z" fill="url(#paint1_linear_0_6)"/>
<path fill-rule="evenodd" clip-rule="evenodd" d="M438.857 287.665L500.995 571.065H477.935C477.935 571.065 452.691 512.961 448.986 500.145C445.281 487.329 442.495 463.051 442.495 463.051C442.495 463.051 415.359 381.926 405.704 353.687C394.987 322.339 385.456 307.084 383.995 287.665H438.857Z" fill="url(#paint2_linear_0_6)"/>
<path fill-rule="evenodd" clip-rule="evenodd" d="M390.34 197.965C390.34 197.965 363.453 198.882 357.365 208.43C351.278 217.979 363.991 262.932 363.991 262.932C363.991 262.932 355.52 289.432 357.365 293.773C359.211 298.113 440.435 296.454 443.857 296.454C447.278 296.454 436.871 262.932 436.871 262.932C436.871 262.932 452.895 228.909 452.895 213.437C452.895 197.965 390.34 197.965 390.34 197.965Z" fill="#6FBF44"/>
<path fill-rule="evenodd" clip-rule="evenodd" d="M357.995 294.743L406.409 243.465L426.895 245.336L411.063 250.181L412.561 252.343C412.561 252.343 400.482 274.513 392.445 282.961C384.407 291.409 372.422 296.765 372.422 296.765C372.422 296.765 365.736 296.638 362.211 296.144C358.686 295.65 357.995 294.743 357.995 294.743Z" fill="#2B8C6B"/>
<path d="M400.895 138.165C400.895 138.165 415.758 156.365 424.295 156.365" stroke="white" stroke-width="1.3" stroke-linecap="round"/>
<path fill-rule="evenodd" clip-rule="evenodd" d="M389.38 169.065C389.38 169.065 391.838 177.921 390.609 186.685C389.38 195.449 389.38 198.846 387.393 200.247C387.393 200.247 384.876 218.062 400.843 219.237C416.809 220.412 416.484 200.247 416.484 200.247C416.484 200.247 412.11 198.366 412.11 188.381C412.11 178.396 412.706 166.245 412.706 166.245L389.38 169.065Z" fill="#FFD1AB"/>
<path fill-rule="evenodd" clip-rule="evenodd" d="M412.249 175.151C412.097 179.839 412.021 184.249 412.021 188.381C412.021 193.053 412.733 196.394 414.157 198.404C400.036 191.785 392.367 187.118 391.15 184.404C391.194 182.953 391.172 181.531 391.106 180.175C391.087 178.933 391.013 177.689 390.884 176.444L412.249 175.151Z" fill="#CF8B54"/>
<path fill-rule="evenodd" clip-rule="evenodd" d="M394.675 146.922C401.015 145.078 402.19 151.038 406.354 154.148C410.518 157.259 417.033 159.825 418.877 160.026C419.252 159.912 419.65 159.851 420.061 159.851C422.381 159.851 424.262 161.792 424.262 164.186C424.262 166.58 422.381 168.521 420.061 168.521C418.98 168.521 417.993 168.099 417.249 167.406C417.254 175.003 414.078 189.375 401.015 189.375C387.951 189.375 386.542 177.57 384.966 167.105C384.681 167.169 384.385 167.202 384.082 167.202C381.762 167.202 379.881 165.261 379.881 162.867C379.881 160.473 381.762 158.532 384.082 158.532C384.245 158.532 394.531 154.924 394.675 146.922Z" fill="#FFD1AB"/>
<path d="M399.586 161.708C400.41 164.845 397.789 171.437 397.252 173.166C396.714 174.896 399.795 173.166 399.795 173.166" stroke="#18233D" stroke-width="1.3" stroke-linecap="round"/>
<path d="M404.26 158.174C404.26 158.174 407.932 156.411 411.712 158.847" stroke="#18233D" stroke-width="1.3" stroke-linecap="round"/>
<path d="M389.248 158.549C389.248 158.549 392.716 156.41 396.729 158.435" stroke="#18233D" stroke-width="1.3" stroke-linecap="round"/>
<ellipse cx="407.522" cy="161.717" rx="1.16792" ry="1.1728" fill="#18233D"/>
<ellipse cx="393.507" cy="161.717" rx="1.16792" ry="1.1728" fill="#18233D"/>
<path fill-rule="evenodd" clip-rule="evenodd" d="M396.232 177.505L403.358 176.964C403.358 176.964 402.346 180.563 399.795 180.563C397.244 180.563 396.232 177.505 396.232 177.505Z" fill="white"/>
<path d="M418.812 165.236L421.147 164.454" stroke="#18233D" stroke-width="1.3" stroke-linecap="round"/>
<path d="M384.553 163.672L382.217 162.89" stroke="#18233D" stroke-width="1.3" stroke-linecap="round"/>
<path fill-rule="evenodd" clip-rule="evenodd" d="M536.641 183.648C532.678 193.456 527.923 207.634 517.572 203.452C507.222 199.27 508.912 179.561 520.426 158.826C531.94 138.09 551.324 104.544 551.324 104.544L551.15 104.046C548.517 96.522 547.386 88.5545 547.819 80.5948L546.724 74.8716C546.548 73.9519 547.102 73.0496 548.002 72.7911C548.712 72.5873 549.474 72.8348 549.928 73.4166L552.26 76.4016C552.898 77.2177 553.358 78.1582 553.61 79.1627L555.365 86.1472L561.922 62.9604C562.225 61.8897 563.296 61.2281 564.389 61.4365C565.532 61.6546 566.293 62.7446 566.104 63.8932L563.284 81.0011L572.23 62.8259C572.759 61.7517 574.027 61.2675 575.137 61.716C576.26 62.1698 576.835 63.4211 576.446 64.5686L569.966 83.7008L579.801 70.9421C580.503 70.0304 581.796 69.8271 582.745 70.4792C583.718 71.148 583.981 72.4655 583.334 73.4527C580.553 77.6917 573.794 88.0494 574.405 87.6419C574.978 87.259 578.953 83.2969 580.92 81.3253C581.55 80.6935 582.548 80.6188 583.264 81.1511C584.051 81.736 584.222 82.8447 583.647 83.6394L572.485 99.089L566.066 109.666C566.066 109.666 540.604 173.84 536.641 183.648Z" fill="#FFD1AB"/>
<path d="M556.649 85.2525C556.649 85.2525 565.033 94.538 563.402 98.5768" stroke="white" stroke-width="1.3" stroke-linecap="round"/>
<path d="M576.275 89.2691C576.275 89.2691 571.462 83.0683 561.503 80.7724" stroke="white" stroke-width="1.3" stroke-linecap="round"/>
<path fill-rule="evenodd" clip-rule="evenodd" d="M432.095 202.366L458.362 198.671L506.62 175.756L548.718 106.965L569.895 112.443C569.895 112.443 539.363 192.081 528.339 203.482C517.315 214.884 439.505 247.365 439.505 247.365L432.095 202.366Z" fill="#6FBF44"/>
<path d="M506.195 175.865L508.795 183.665" stroke="white" stroke-width="1.3" stroke-linecap="round"/>
<path fill-rule="evenodd" clip-rule="evenodd" d="M412.131 191.473C412.131 191.473 419.86 191.697 422.298 199.717C424.736 207.737 423.084 233.799 431.081 240.559L423.222 249.635C423.222 249.635 389.409 241.383 380.579 220.55C371.749 199.717 390.149 191.674 390.149 191.674L388.812 198.295C388.812 198.295 381.838 204.372 384.851 213.39C387.864 222.407 407.988 237.736 418.007 239.78C416.071 230.939 414.607 215.238 415.58 206.662C416.553 198.086 411.816 195.595 411.816 195.595L412.131 191.473Z" fill="url(#paint3_linear_0_6)"/>
<mask id="mask1_0_6" style="mask-type:luminance" maskUnits="userSpaceOnUse" x="378" y="191" width="54" height="59">
<path fill-rule="evenodd" clip-rule="evenodd" d="M412.131 191.473C412.131 191.473 419.86 191.697 422.298 199.717C424.736 207.737 423.084 233.799 431.081 240.559L423.222 249.635C423.222 249.635 389.409 241.383 380.579 220.55C371.749 199.717 390.149 191.674 390.149 191.674L388.812 198.295C388.812 198.295 381.838 204.372 384.851 213.39C387.864 222.407 407.988 237.736 418.007 239.78C416.071 230.939 414.607 215.238 415.58 206.662C416.553 198.086 411.816 195.595 411.816 195.595L412.131 191.473Z" fill="white"/>
</mask>
<g mask="url(#mask1_0_6)">
<path fill-rule="evenodd" clip-rule="evenodd" d="M423.394 206.532L415.408 208.609C415.453 207.927 415.511 207.276 415.58 206.662C416.229 200.945 414.974 197.256 411.816 195.595L412.131 191.473C417.284 191.622 420.673 194.37 422.298 199.717C422.794 201.348 423.121 203.724 423.394 206.532ZM380.4 199.27C382.503 196.097 385.856 193.496 390.46 191.465L389.123 198.086C387.268 199.687 385.913 201.421 385.06 203.288L380.4 199.27Z" fill="url(#paint4_linear_0_6)"/>
<path d="M411.251 192.596C411.251 192.596 419.059 193.478 420.679 203.022C422.298 212.566 417.889 227.344 424.716 239.81" stroke="white" stroke-width="1.69"/>
<path fill-rule="evenodd" clip-rule="evenodd" d="M418.007 239.78L423.222 249.635C423.222 249.635 413.946 246.93 410.221 245.819C406.497 244.708 407.303 235.006 407.303 235.006C407.303 235.006 410.871 237.213 413.028 238.175C415.185 239.137 418.007 239.78 418.007 239.78Z" fill="url(#paint5_linear_0_6)"/>
<path d="M389.843 194.625C389.843 194.625 381.924 197.342 380.579 207.737C379.234 218.132 394.136 238.274 417.524 244.758" stroke="white" stroke-width="1.3" stroke-linecap="round"/>
</g>
<ellipse cx="11.1288" cy="13.1577" rx="11.1288" ry="13.1577" transform="matrix(-0.309017 0.951057 0.951057 0.309017 425.642 235.865)" fill="#F5BB37"/>
<mask id="mask2_0_6" style="mask-type:luminance" maskUnits="userSpaceOnUse" x="421" y="239" width="27" height="23">
<ellipse cx="11.1288" cy="13.1577" rx="11.1288" ry="13.1577" transform="matrix(-0.309017 0.951057 0.951057 0.309017 425.642 235.865)" fill="white"/>
</mask>
<g mask="url(#mask2_0_6)">
<path d="M425.788 249.088L421.648 254.934L420.02 253.731L424.16 247.884L425.788 249.088Z" fill="url(#paint6_linear_0_6)"/>
<path d="M429.094 254.985L426.107 259.557L424.438 258.415L427.425 253.842L429.094 254.985Z" fill="url(#paint7_linear_0_6)"/>
<path d="M434.059 257.792L432.222 262.525L430.366 261.748L432.203 257.015L434.059 257.792Z" fill="url(#paint8_linear_0_6)"/>
<path d="M439.732 257.543L437.663 263.452L435.691 263.117L437.76 257.209L439.732 257.543Z" fill="url(#paint9_linear_0_6)"/>
<path d="M444.719 256.876L443.631 260.721L441.67 261.04L442.759 257.195L444.719 256.876Z" fill="url(#paint10_linear_0_6)"/>
</g>
<ellipse cx="11.1288" cy="13.1577" rx="11.1288" ry="13.1577" transform="matrix(-0.309017 0.951057 0.951057 0.309017 426.534 234.208)" fill="url(#paint11_linear_0_6)"/>
<ellipse cx="8.42177" cy="9.8432" rx="8.42177" ry="9.8432" transform="matrix(-0.309017 0.951057 0.951057 0.309017 428.85 237.807)" stroke="white" stroke-width="0.845"/>
<path d="M430.38 249.62C430.083 249.525 429.855 249.27 429.786 248.955C429.716 248.639 429.819 248.329 430.055 248.145L432.15 246.507C432.239 246.438 432.286 246.324 432.276 246.203L432.044 243.363C432.018 243.044 432.164 242.755 432.425 242.611C432.686 242.466 433.008 242.495 433.264 242.686L435.55 244.388C435.648 244.461 435.769 244.481 435.876 244.442L438.374 243.533C438.655 243.431 438.973 243.508 439.204 243.734C439.435 243.961 439.53 244.289 439.454 244.591L438.772 247.279C438.743 247.394 438.77 247.521 438.846 247.618L440.622 249.896C440.778 250.097 440.844 250.34 440.807 250.581C440.75 250.955 440.441 251.231 440.068 251.226L437.361 251.186C437.248 251.184 437.14 251.245 437.081 251.341L435.681 253.658C435.613 253.771 435.522 253.859 435.412 253.92C435.211 254.031 434.967 254.039 434.742 253.942C434.518 253.846 434.347 253.661 434.26 253.423L433.269 250.709C433.227 250.593 433.134 250.503 433.021 250.467L430.38 249.62Z" fill="url(#paint12_linear_0_6)"/>
<path fill-rule="evenodd" clip-rule="evenodd" d="M364.615 202.636C364.615 202.636 352.918 205.203 348.469 220.377C344.02 235.551 330.618 267.314 335.746 285.918C337.874 293.639 347.056 296.887 358.44 294.889C374.485 292.072 389.47 278.665 406.095 253.004L395.579 243.034L361.904 264.561L364.615 202.636Z" fill="#6FBF44"/>
<path d="M361.895 264.265L352.795 273.365" stroke="white" stroke-width="1.3" stroke-linecap="round"/>
<path d="M367.785 236.965C365.837 248.906 361.895 264.265 361.895 264.265L395.695 243.134" stroke="white" stroke-width="1.3" stroke-linecap="round"/>
<rect x="409.995" y="216.165" width="16.9" height="31.2" rx="1.3" fill="#FE8B6E"/>
<path fill-rule="evenodd" clip-rule="evenodd" d="M396.995 244.142C396.995 244.142 404.256 234.898 406.184 231.936C408.113 228.973 410.308 225.905 410.308 225.905V231.936C410.308 231.936 422.5 226.326 423.204 222.665C424.311 230.004 425.669 232.117 421.145 239.604C416.62 247.09 403.946 251.265 403.946 251.265L396.995 244.142Z" fill="#FFD1AB"/>
<path d="M424.295 227.865C424.295 227.865 419.201 232.047 416.495 233.065" stroke="#18233D" stroke-width="1.3" stroke-linecap="round"/>
<path d="M424.295 231.765C424.295 231.765 419.201 235.947 416.495 236.965" stroke="#18233D" stroke-width="1.3" stroke-linecap="round"/>
<path d="M421.695 238.265C421.695 238.265 418.299 241.401 416.495 242.165" stroke="#18233D" stroke-width="1.3" stroke-linecap="round"/>
</g>
<mask id="mask3_0_6" style="mask-type:luminance" maskUnits="userSpaceOnUse" x="61" y="31" width="535" height="467">
<path fill-rule="evenodd" clip-rule="evenodd" d="M83.4714 439.081C83.4714 439.081 198.038 515.339 340.105 493.065C482.171 470.792 535.537 413.012 535.537 413.012L499.259 255.342C499.259 255.342 579.128 197.73 590.138 136.084C601.148 74.4379 594.409 32.3552 560.625 32.3552C526.841 32.3552 478.495 145.059 452.895 140.765C427.294 136.472 419.874 76.7077 390.884 92.9093C361.895 109.111 372.201 20.1451 311.792 32.3552C251.382 44.5653 296.871 113.962 238.487 92.9093C180.104 71.8567 133.267 86.9137 117.544 125.593C101.822 164.271 45.0977 210.591 65.5845 279.028C86.0714 347.465 99.2963 341.813 97.2529 383.865C95.2095 425.918 83.4714 439.081 83.4714 439.081Z" fill="white"/>
</mask>
<g mask="url(#mask3_0_6)">
<path fill-rule="evenodd" clip-rule="evenodd" d="M152.476 279.028C152.476 279.028 145.572 289.354 143.504 324.649C141.435 359.945 137.836 571.41 137.836 571.41H171.405C171.405 571.41 185.365 433.813 187.471 407.356C189.577 380.899 201.747 280.888 201.747 280.888L152.476 279.028Z" fill="#6FBF44"/>
<path fill-rule="evenodd" clip-rule="evenodd" d="M195.263 333.815L184.85 323.018L168.6 571.411H171.405L195.263 333.815Z" fill="#2B8C6B"/>
<path d="M195.263 334.465L183.676 320.782" stroke="white" stroke-width="1.3" stroke-linecap="round"/>
<path d="M155.238 280.888C155.238 280.888 145.572 323.145 145.572 365.128C145.572 407.11 140.671 570.948 140.671 570.948" stroke="white" stroke-width="1.3" stroke-linecap="round"/>
<path fill-rule="evenodd" clip-rule="evenodd" d="M236.742 278.565C236.742 278.565 246.659 304.627 246.659 328.718C246.659 352.808 251.382 570.948 251.382 570.948H217.813C217.813 570.948 207.179 433.813 205.073 407.356C202.967 380.899 187.471 280.425 187.471 280.425L236.742 278.565Z" fill="#6FBF44"/>
<path d="M229.576 279.028C229.576 279.028 238.77 305.053 241.408 343.702C244.046 382.351 247.399 570.948 247.399 570.948" stroke="white" stroke-width="1.3" stroke-linecap="round"/>
<path fill-rule="evenodd" clip-rule="evenodd" d="M152.476 280.888C152.476 280.888 174.153 283.791 197.2 283.791C220.247 283.791 235.681 280.888 235.681 280.888H152.476Z" fill="white"/>
<path fill-rule="evenodd" clip-rule="evenodd" d="M176.566 173.347C176.566 173.347 143.734 176.099 130.376 186.601C117.018 197.102 95.2095 238.597 95.2095 238.597L123.639 259.715L138.256 238.597C138.256 238.597 141.491 272.358 152.476 280.888H235.681C235.681 280.888 248.495 269.602 252.587 238.597L302.906 234.365L299.624 194.625C299.624 194.625 248.734 172.601 202.715 173.431L176.566 173.347Z" fill="url(#paint13_linear_0_6)"/>
<path fill-rule="evenodd" clip-rule="evenodd" d="M101.731 232.568C97.7144 230.212 94.4279 235.497 90.7926 240.879C87.1572 246.261 84.3979 246.428 90.2804 250.066C96.1629 253.704 116.654 272.861 120.007 270.003C123.36 267.145 123.073 258.855 125.79 258.278C128.507 257.7 132.579 256.081 126.873 250.012C121.167 243.944 105.747 234.923 101.731 232.568Z" fill="#6FBF44"/>
<path fill-rule="evenodd" clip-rule="evenodd" d="M281.102 217.131C281.102 228.209 284.16 238.181 304.273 238.209C324.386 238.236 329.441 209.436 324.317 200.893C319.193 192.35 311.537 178.562 297.849 182.745C284.16 186.928 281.102 206.052 281.102 217.131Z" fill="#6FBF44"/>
<path fill-rule="evenodd" clip-rule="evenodd" d="M321.002 199.433C319.706 211.768 315.32 226.933 302.605 225.596C289.891 224.26 285.585 201.517 291.782 174.418C297.978 147.318 308.836 103.23 308.836 103.23L308.551 102.816C303.253 95.1409 299.493 86.5117 297.479 77.4059L294.457 71.2722C293.986 70.3148 294.308 69.1559 295.207 68.5796C295.941 68.1087 296.889 68.1411 297.59 68.6609L301.083 71.2546C302.026 71.9544 302.811 72.8442 303.389 73.8663L307.531 81.1992L307.499 52.8845C307.497 51.6177 308.46 50.5576 309.721 50.4371C311.056 50.3094 312.247 51.2767 312.395 52.6098L314.647 72.8245L318.825 49.3885C319.066 48.039 320.308 47.1047 321.671 47.248C323.05 47.3929 324.076 48.5894 324.008 49.9743L322.854 73.6872L329.706 56.0938C330.188 54.855 331.561 54.216 332.82 54.6443C334.091 55.0771 334.792 56.4337 334.399 57.7184C332.676 63.3498 328.431 77.3392 328.979 76.6786C329.491 76.06 332.636 70.2937 334.184 67.4358C334.676 66.527 335.766 66.1226 336.731 66.4923C337.772 66.891 338.305 68.0471 337.932 69.0976L330.447 90.1932L326.684 104.194C326.684 104.194 322.299 187.097 321.002 199.433Z" fill="#FFD1AB"/>
<path d="M308.072 79.9682C308.072 79.9682 320.052 87.7613 319.511 92.9093" stroke="white" stroke-width="1.3" stroke-linecap="round"/>
<path d="M330.78 77.019C330.78 77.019 323.614 71.7648 312.07 72.3784" stroke="white" stroke-width="1.3" stroke-linecap="round"/>
<path fill-rule="evenodd" clip-rule="evenodd" d="M174.018 140.877C174.018 140.877 177.252 150.678 175.635 160.377C174.018 170.076 174.018 173.836 171.405 175.386C171.405 175.386 181.236 183.93 190.977 183.93C200.717 183.93 209.679 175.386 209.679 175.386C209.679 175.386 203.924 173.304 203.924 162.254C203.924 151.204 204.707 137.756 204.707 137.756L174.018 140.877Z" fill="#FFD1AB"/>
<path fill-rule="evenodd" clip-rule="evenodd" d="M204.226 147.612C204.025 152.801 203.924 157.681 203.924 162.254C203.924 167.424 204.869 171.122 206.758 173.347C188.019 166.021 177.841 160.857 176.226 157.853C176.283 156.247 176.255 154.673 176.167 153.173C176.142 151.798 176.044 150.422 175.873 149.044L204.226 147.612Z" fill="#CF8B54"/>
<path fill-rule="evenodd" clip-rule="evenodd" d="M169.93 139.64C163.2 129.307 161.112 109.823 175.766 105.529C176.761 90.839 210.11 97.1888 214.354 112.842C218.597 128.495 209.866 150.658 197.584 153.312C185.302 155.966 176.66 149.973 169.93 139.64Z" fill="#18233D"/>
<path d="M182.376 106.965C182.376 106.965 194.783 111.257 202.715 111.257" stroke="white" stroke-width="1.3" stroke-linecap="round"/>
<path fill-rule="evenodd" clip-rule="evenodd" d="M176.566 114.162C180.513 112.63 191.147 116.193 195.761 116.983C199.43 117.612 204.385 118.68 206.758 115.071C206.02 134.938 207.692 129.351 209.752 129.574C210.171 129.448 210.615 129.38 211.075 129.38C213.667 129.38 215.768 131.528 215.768 134.178C215.768 136.827 213.667 138.975 211.075 138.975C209.866 138.975 208.765 138.508 207.933 137.741C207.939 146.148 204.391 162.055 189.796 162.055C175.202 162.055 173.627 148.989 171.867 137.408C171.549 137.478 171.218 137.515 170.879 137.515C168.287 137.515 166.186 135.367 166.186 132.718C166.186 130.068 168.287 127.92 170.879 127.92C171.062 127.92 171.022 130.444 171.867 130.148C174.325 128.801 173.878 121.914 176.566 114.162Z" fill="#FFD1AB"/>
<path d="M185.361 149.045C185.361 149.045 187.436 151.645 191.861 149.045" stroke="#18233D" stroke-width="1.3" stroke-linecap="round"/>
<path d="M188.2 131.435C189.121 134.907 186.193 142.202 185.592 144.116C184.992 146.03 188.434 144.116 188.434 144.116" stroke="#18233D" stroke-width="1.3" stroke-linecap="round"/>
<path d="M193.422 127.524C193.422 127.524 197.524 125.573 201.747 128.269" stroke="#18233D" stroke-width="1.3" stroke-linecap="round"/>
<path d="M176.651 127.939C176.651 127.939 180.525 125.571 185.009 127.813" stroke="#18233D" stroke-width="1.3" stroke-linecap="round"/>
<ellipse cx="197.066" cy="131.446" rx="1.30478" ry="1.29794" fill="#18233D"/>
<ellipse cx="181.408" cy="131.446" rx="1.30478" ry="1.29794" fill="#18233D"/>
<path d="M209.679 135.339L212.288 134.474" stroke="#18233D" stroke-width="1.3" stroke-linecap="round"/>
<path d="M171.405 133.609L168.796 132.744" stroke="#18233D" stroke-width="1.3" stroke-linecap="round"/>
<path d="M215.44 126.705L217.476 136.472" stroke="white" stroke-width="1.3" stroke-linecap="round"/>
<rect x="184.85" y="200.638" width="24.7" height="45.5" rx="1.3" fill="#FE8B6E"/>
<path fill-rule="evenodd" clip-rule="evenodd" d="M90.2804 250.066C90.2804 250.066 78.4294 284.57 99.9464 291.028C121.463 297.486 182.647 244.83 182.647 244.83C182.647 244.83 199.331 241.544 201.747 232.533C204.163 223.521 205.073 215.058 205.073 215.058L184.836 224.348V217.848C184.836 217.848 179.753 220.157 177.331 226.642C165.443 232.633 104.115 259.715 104.115 259.715L90.2804 250.066Z" fill="#FFD1AB"/>
<path d="M204.371 221.365C204.371 221.365 199.277 225.547 196.571 226.565" stroke="#18233D" stroke-width="1.3" stroke-linecap="round"/>
<path d="M204.371 225.265C204.371 225.265 199.277 229.447 196.571 230.465" stroke="#18233D" stroke-width="1.3" stroke-linecap="round"/>
<path d="M201.771 231.765C201.771 231.765 198.375 234.901 196.571 235.665" stroke="#18233D" stroke-width="1.3" stroke-linecap="round"/>
<path d="M97.2529 262.281C97.2529 262.281 126.755 249.588 137.836 244.092" stroke="white" stroke-width="1.3" stroke-linecap="round"/>
<path fill-rule="evenodd" clip-rule="evenodd" d="M391.829 136.01C391.829 136.01 379.589 135.271 376.736 145.193C373.882 155.114 375.036 195.407 364.245 205.013C353.454 214.619 381.477 237.638 414.516 228.265C447.555 218.893 445.941 208.505 441.268 200.349C436.595 192.194 436.048 152.868 421.785 137.207C407.522 121.546 391.829 136.01 391.829 136.01Z" fill="#18233D"/>
<path fill-rule="evenodd" clip-rule="evenodd" d="M359.752 288.366C359.752 288.366 349.86 341.515 357.264 370.405C364.667 399.295 378.854 455.903 378.854 455.903C378.854 455.903 370.444 475.553 370.444 506.565C370.444 537.578 366.474 571.065 366.474 571.065H389.099C389.099 571.065 412.029 466.997 415.071 442.884C416.264 433.434 408.448 389.376 406.559 353.179C405.235 327.802 407.783 278.565 407.783 278.565L359.752 288.366Z" fill="url(#paint14_linear_0_6)"/>
<path fill-rule="evenodd" clip-rule="evenodd" d="M438.857 287.665L500.995 571.065H477.935C477.935 571.065 452.691 512.961 448.986 500.145C445.281 487.329 442.495 463.051 442.495 463.051C442.495 463.051 415.359 381.926 405.704 353.687C394.987 322.339 385.456 307.084 383.995 287.665H438.857Z" fill="url(#paint15_linear_0_6)"/>
<path fill-rule="evenodd" clip-rule="evenodd" d="M390.34 197.965C390.34 197.965 363.453 198.882 357.365 208.43C351.278 217.979 363.991 262.932 363.991 262.932C363.991 262.932 355.52 289.432 357.365 293.773C359.211 298.113 440.435 296.454 443.857 296.454C447.278 296.454 436.871 262.932 436.871 262.932C436.871 262.932 452.895 228.909 452.895 213.437C452.895 197.965 390.34 197.965 390.34 197.965Z" fill="#6FBF44"/>
<path fill-rule="evenodd" clip-rule="evenodd" d="M357.995 294.743L406.409 243.465L426.895 245.336L411.063 250.181L412.561 252.343C412.561 252.343 400.482 274.513 392.445 282.961C384.407 291.409 372.422 296.765 372.422 296.765C372.422 296.765 365.736 296.638 362.211 296.144C358.686 295.65 357.995 294.743 357.995 294.743Z" fill="#2B8C6B"/>
<path d="M400.895 138.165C400.895 138.165 415.758 156.365 424.295 156.365" stroke="white" stroke-width="1.3" stroke-linecap="round"/>
<path fill-rule="evenodd" clip-rule="evenodd" d="M389.38 169.065C389.38 169.065 391.838 177.921 390.609 186.685C389.38 195.449 389.38 198.846 387.393 200.247C387.393 200.247 384.876 218.062 400.843 219.237C416.809 220.412 416.484 200.247 416.484 200.247C416.484 200.247 412.11 198.366 412.11 188.381C412.11 178.396 412.706 166.245 412.706 166.245L389.38 169.065Z" fill="#FFD1AB"/>
<path fill-rule="evenodd" clip-rule="evenodd" d="M412.249 175.151C412.097 179.839 412.021 184.249 412.021 188.381C412.021 193.053 412.733 196.394 414.157 198.404C400.036 191.785 392.367 187.118 391.15 184.404C391.194 182.953 391.172 181.531 391.106 180.175C391.087 178.933 391.013 177.689 390.884 176.444L412.249 175.151Z" fill="#CF8B54"/>
<path fill-rule="evenodd" clip-rule="evenodd" d="M394.675 146.922C401.015 145.078 402.19 151.038 406.354 154.148C410.518 157.259 417.033 159.825 418.877 160.026C419.252 159.912 419.65 159.851 420.061 159.851C422.381 159.851 424.262 161.792 424.262 164.186C424.262 166.58 422.381 168.521 420.061 168.521C418.98 168.521 417.993 168.099 417.249 167.406C417.254 175.003 414.078 189.375 401.015 189.375C387.951 189.375 386.542 177.57 384.966 167.105C384.681 167.169 384.385 167.202 384.082 167.202C381.762 167.202 379.881 165.261 379.881 162.867C379.881 160.473 381.762 158.532 384.082 158.532C384.245 158.532 394.531 154.924 394.675 146.922Z" fill="#FFD1AB"/>
<path d="M399.586 161.708C400.41 164.845 397.789 171.437 397.252 173.166C396.714 174.896 399.795 173.166 399.795 173.166" stroke="#18233D" stroke-width="1.3" stroke-linecap="round"/>
<path d="M404.26 158.174C404.26 158.174 407.932 156.411 411.712 158.847" stroke="#18233D" stroke-width="1.3" stroke-linecap="round"/>
<path d="M389.248 158.549C389.248 158.549 392.716 156.41 396.729 158.435" stroke="#18233D" stroke-width="1.3" stroke-linecap="round"/>
<ellipse cx="407.522" cy="161.717" rx="1.16792" ry="1.1728" fill="#18233D"/>
<ellipse cx="393.507" cy="161.717" rx="1.16792" ry="1.1728" fill="#18233D"/>
<path fill-rule="evenodd" clip-rule="evenodd" d="M396.232 177.505L403.358 176.964C403.358 176.964 402.346 180.563 399.795 180.563C397.244 180.563 396.232 177.505 396.232 177.505Z" fill="white"/>
<path d="M418.812 165.236L421.147 164.454" stroke="#18233D" stroke-width="1.3" stroke-linecap="round"/>
<path d="M384.553 163.672L382.217 162.89" stroke="#18233D" stroke-width="1.3" stroke-linecap="round"/>
<path fill-rule="evenodd" clip-rule="evenodd" d="M536.641 183.648C532.678 193.456 527.923 207.634 517.572 203.452C507.222 199.27 508.912 179.561 520.426 158.826C531.94 138.09 551.324 104.544 551.324 104.544L551.15 104.046C548.517 96.522 547.386 88.5545 547.819 80.5948L546.724 74.8716C546.548 73.9519 547.102 73.0496 548.002 72.7911C548.712 72.5873 549.474 72.8348 549.928 73.4166L552.26 76.4016C552.898 77.2177 553.358 78.1582 553.61 79.1627L555.365 86.1472L561.922 62.9604C562.225 61.8897 563.296 61.2281 564.389 61.4365C565.532 61.6546 566.293 62.7446 566.104 63.8932L563.284 81.0011L572.23 62.8259C572.759 61.7517 574.027 61.2675 575.137 61.716C576.26 62.1698 576.835 63.4211 576.446 64.5686L569.966 83.7008L579.801 70.9421C580.503 70.0304 581.796 69.8271 582.745 70.4792C583.718 71.148 583.981 72.4655 583.334 73.4527C580.553 77.6917 573.794 88.0494 574.405 87.6419C574.978 87.259 578.953 83.2969 580.92 81.3253C581.55 80.6935 582.548 80.6188 583.264 81.1511C584.051 81.736 584.222 82.8447 583.647 83.6394L572.485 99.089L566.066 109.666C566.066 109.666 540.604 173.84 536.641 183.648Z" fill="#FFD1AB"/>
<path d="M556.649 85.2525C556.649 85.2525 565.033 94.538 563.402 98.5768" stroke="white" stroke-width="1.3" stroke-linecap="round"/>
<path d="M576.275 89.2691C576.275 89.2691 571.462 83.0683 561.503 80.7724" stroke="white" stroke-width="1.3" stroke-linecap="round"/>
<path fill-rule="evenodd" clip-rule="evenodd" d="M432.095 202.366L458.362 198.671L506.62 175.756L548.718 106.965L569.895 112.443C569.895 112.443 539.363 192.081 528.339 203.482C517.315 214.884 439.505 247.365 439.505 247.365L432.095 202.366Z" fill="#6FBF44"/>
<path d="M506.195 175.865L508.795 183.665" stroke="white" stroke-width="1.3" stroke-linecap="round"/>
<path fill-rule="evenodd" clip-rule="evenodd" d="M412.131 191.473C412.131 191.473 419.86 191.697 422.298 199.717C424.736 207.737 423.084 233.799 431.081 240.559L423.222 249.635C423.222 249.635 389.409 241.383 380.579 220.55C371.749 199.717 390.149 191.674 390.149 191.674L388.812 198.295C388.812 198.295 381.838 204.372 384.851 213.39C387.864 222.407 407.988 237.736 418.007 239.78C416.071 230.939 414.607 215.238 415.58 206.662C416.553 198.086 411.816 195.595 411.816 195.595L412.131 191.473Z" fill="url(#paint16_linear_0_6)"/>
<mask id="mask4_0_6" style="mask-type:luminance" maskUnits="userSpaceOnUse" x="378" y="191" width="54" height="59">
<path fill-rule="evenodd" clip-rule="evenodd" d="M412.131 191.473C412.131 191.473 419.86 191.697 422.298 199.717C424.736 207.737 423.084 233.799 431.081 240.559L423.222 249.635C423.222 249.635 389.409 241.383 380.579 220.55C371.749 199.717 390.149 191.674 390.149 191.674L388.812 198.295C388.812 198.295 381.838 204.372 384.851 213.39C387.864 222.407 407.988 237.736 418.007 239.78C416.071 230.939 414.607 215.238 415.58 206.662C416.553 198.086 411.816 195.595 411.816 195.595L412.131 191.473Z" fill="white"/>
</mask>
<g mask="url(#mask4_0_6)">
<path fill-rule="evenodd" clip-rule="evenodd" d="M423.394 206.532L415.408 208.609C415.453 207.927 415.511 207.276 415.58 206.662C416.229 200.945 414.974 197.256 411.816 195.595L412.131 191.473C417.284 191.622 420.673 194.37 422.298 199.717C422.794 201.348 423.121 203.724 423.394 206.532ZM380.4 199.27C382.503 196.097 385.856 193.496 390.46 191.465L389.123 198.086C387.268 199.687 385.913 201.421 385.06 203.288L380.4 199.27Z" fill="url(#paint17_linear_0_6)"/>
<path d="M411.251 192.596C411.251 192.596 419.059 193.478 420.679 203.022C422.298 212.566 417.889 227.344 424.716 239.81" stroke="white" stroke-width="1.69"/>
<path fill-rule="evenodd" clip-rule="evenodd" d="M418.007 239.78L423.222 249.635C423.222 249.635 413.946 246.93 410.221 245.819C406.497 244.708 407.303 235.006 407.303 235.006C407.303 235.006 410.871 237.213 413.028 238.175C415.185 239.137 418.007 239.78 418.007 239.78Z" fill="url(#paint18_linear_0_6)"/>
<path d="M389.843 194.625C389.843 194.625 381.924 197.342 380.579 207.737C379.234 218.132 394.136 238.274 417.524 244.758" stroke="white" stroke-width="1.3" stroke-linecap="round"/>
</g>
<ellipse cx="11.1288" cy="13.1577" rx="11.1288" ry="13.1577" transform="matrix(-0.309017 0.951057 0.951057 0.309017 425.642 235.865)" fill="#F5BB37"/>
<mask id="mask5_0_6" style="mask-type:luminance" maskUnits="userSpaceOnUse" x="421" y="239" width="27" height="23">
<ellipse cx="11.1288" cy="13.1577" rx="11.1288" ry="13.1577" transform="matrix(-0.309017 0.951057 0.951057 0.309017 425.642 235.865)" fill="white"/>
</mask>
<g mask="url(#mask5_0_6)">
<path d="M425.788 249.088L421.648 254.934L420.02 253.731L424.16 247.884L425.788 249.088Z" fill="url(#paint19_linear_0_6)"/>
<path d="M429.094 254.985L426.107 259.557L424.438 258.415L427.425 253.842L429.094 254.985Z" fill="url(#paint20_linear_0_6)"/>
<path d="M434.059 257.792L432.222 262.525L430.366 261.748L432.203 257.015L434.059 257.792Z" fill="url(#paint21_linear_0_6)"/>
<path d="M439.732 257.543L437.663 263.452L435.691 263.117L437.76 257.209L439.732 257.543Z" fill="url(#paint22_linear_0_6)"/>
<path d="M444.719 256.876L443.631 260.721L441.67 261.04L442.759 257.195L444.719 256.876Z" fill="url(#paint23_linear_0_6)"/>
</g>
<ellipse cx="11.1288" cy="13.1577" rx="11.1288" ry="13.1577" transform="matrix(-0.309017 0.951057 0.951057 0.309017 426.534 234.208)" fill="url(#paint24_linear_0_6)"/>
<ellipse cx="8.42177" cy="9.8432" rx="8.42177" ry="9.8432" transform="matrix(-0.309017 0.951057 0.951057 0.309017 428.85 237.807)" stroke="white" stroke-width="0.845"/>
<path d="M430.38 249.62C430.083 249.525 429.855 249.27 429.786 248.955C429.716 248.639 429.819 248.329 430.055 248.145L432.15 246.507C432.239 246.438 432.286 246.324 432.276 246.203L432.044 243.363C432.018 243.044 432.164 242.755 432.425 242.611C432.686 242.466 433.008 242.495 433.264 242.686L435.55 244.388C435.648 244.461 435.769 244.481 435.876 244.442L438.374 243.533C438.655 243.431 438.973 243.508 439.204 243.734C439.435 243.961 439.53 244.289 439.454 244.591L438.772 247.279C438.743 247.394 438.77 247.521 438.846 247.618L440.622 249.896C440.778 250.097 440.844 250.34 440.807 250.581C440.75 250.955 440.441 251.231 440.068 251.226L437.361 251.186C437.248 251.184 437.14 251.245 437.081 251.341L435.681 253.658C435.613 253.771 435.522 253.859 435.412 253.92C435.211 254.031 434.967 254.039 434.742 253.942C434.518 253.846 434.347 253.661 434.26 253.423L433.269 250.709C433.227 250.593 433.134 250.503 433.021 250.467L430.38 249.62Z" fill="url(#paint25_linear_0_6)"/>
<path fill-rule="evenodd" clip-rule="evenodd" d="M364.615 202.636C364.615 202.636 352.918 205.203 348.469 220.377C344.02 235.551 330.618 267.314 335.746 285.918C337.874 293.639 347.056 296.887 358.44 294.889C374.485 292.072 389.47 278.665 406.095 253.004L395.579 243.034L361.904 264.561L364.615 202.636Z" fill="#6FBF44"/>
<path d="M361.895 264.265L352.795 273.365" stroke="white" stroke-width="1.3" stroke-linecap="round"/>
<path d="M367.785 236.965C365.837 248.906 361.895 264.265 361.895 264.265L395.695 243.134" stroke="white" stroke-width="1.3" stroke-linecap="round"/>
<rect x="409.995" y="216.165" width="16.9" height="31.2" rx="1.3" fill="#FE8B6E"/>
<path fill-rule="evenodd" clip-rule="evenodd" d="M396.995 244.142C396.995 244.142 404.256 234.898 406.184 231.936C408.113 228.973 410.308 225.905 410.308 225.905V231.936C410.308 231.936 422.5 226.326 423.204 222.665C424.311 230.004 425.669 232.117 421.145 239.604C416.62 247.09 403.946 251.265 403.946 251.265L396.995 244.142Z" fill="#FFD1AB"/>
<path d="M424.295 227.865C424.295 227.865 419.201 232.047 416.495 233.065" stroke="#18233D" stroke-width="1.3" stroke-linecap="round"/>
<path d="M424.295 231.765C424.295 231.765 419.201 235.947 416.495 236.965" stroke="#18233D" stroke-width="1.3" stroke-linecap="round"/>
<path d="M421.695 238.265C421.695 238.265 418.299 241.401 416.495 242.165" stroke="#18233D" stroke-width="1.3" stroke-linecap="round"/>
</g>
<path fill-rule="evenodd" clip-rule="evenodd" d="M300.296 10.1724C304.667 9.57491 307.667 8.70583 309.296 7.56514C310.925 6.42444 312.767 3.90273 314.824 0C314.305 3.97148 314.894 7.16786 316.589 9.58914C318.284 12.0104 321.087 13.6566 324.996 14.5276C320.559 14.9707 317.511 15.7723 315.855 16.9324C314.198 18.0925 312.402 20.6817 310.468 24.7C310.302 20.0695 309.638 16.9257 308.478 15.2686C307.317 13.6114 304.59 11.9127 300.296 10.1724Z" fill="#0ACC94"/>
<path fill-rule="evenodd" clip-rule="evenodd" d="M61.096 327.372C65.4667 326.775 68.4665 325.906 70.0956 324.765C71.7247 323.624 73.5674 321.103 75.6237 317.2C75.1051 321.171 75.6936 324.368 77.3889 326.789C79.0843 329.21 81.8867 330.857 85.796 331.728C81.3586 332.171 78.3115 332.972 76.6547 334.132C74.9979 335.293 73.2024 337.882 71.2684 341.9C71.1017 337.27 70.4382 334.126 69.2779 332.469C68.1175 330.811 65.3902 329.113 61.096 327.372Z" fill="#0ACC94"/>
<path fill-rule="evenodd" clip-rule="evenodd" d="M79.296 121.974C87.5773 120.842 93.2612 119.195 96.3479 117.034C99.4346 114.873 102.926 110.095 106.822 102.7C105.84 110.225 106.955 116.281 110.167 120.869C113.379 125.457 118.689 128.576 126.096 130.226C117.688 131.066 111.915 132.584 108.776 134.782C105.636 136.981 102.234 141.886 98.57 149.5C98.2542 140.726 96.997 134.77 94.7984 131.63C92.5999 128.49 87.4324 125.271 79.296 121.974Z" fill="#0ACC94"/>
<path fill-rule="evenodd" clip-rule="evenodd" d="M508.296 292.274C516.577 291.142 522.261 289.495 525.348 287.334C528.435 285.173 531.926 280.395 535.822 273C534.84 280.525 535.955 286.581 539.167 291.169C542.379 295.757 547.689 298.876 555.096 300.526C546.688 301.366 540.915 302.884 537.776 305.083C534.636 307.281 531.234 312.186 527.57 319.8C527.254 311.027 525.997 305.07 523.798 301.93C521.6 298.79 516.432 295.571 508.296 292.274Z" fill="#026753"/>
<defs>
<linearGradient id="paint0_linear_0_6" x1="95.2095" y1="173.347" x2="95.2095" y2="280.888" gradientUnits="userSpaceOnUse">
<stop stop-color="#354970"/>
<stop offset="1" stop-color="#18233D"/>
</linearGradient>
<linearGradient id="paint1_linear_0_6" x1="354.095" y1="278.565" x2="354.095" y2="571.065" gradientUnits="userSpaceOnUse">
<stop stop-color="#354970"/>
<stop offset="1" stop-color="#18233D"/>
</linearGradient>
<linearGradient id="paint2_linear_0_6" x1="383.995" y1="287.665" x2="383.995" y2="571.065" gradientUnits="userSpaceOnUse">
<stop stop-color="#354970"/>
<stop offset="1" stop-color="#18233D"/>
</linearGradient>
<linearGradient id="paint3_linear_0_6" x1="374.091" y1="241.735" x2="427.61" y2="248.405" gradientUnits="userSpaceOnUse">
<stop stop-color="#FCEA91"/>
<stop offset="1" stop-color="#FFD757"/>
</linearGradient>
<linearGradient id="paint4_linear_0_6" x1="414.119" y1="200.296" x2="414.326" y2="185.699" gradientUnits="userSpaceOnUse">
<stop stop-color="#FFDD67"/>
<stop offset="1" stop-color="#F5BB37"/>
</linearGradient>
<linearGradient id="paint5_linear_0_6" x1="405.653" y1="247.81" x2="417.564" y2="251.08" gradientUnits="userSpaceOnUse">
<stop stop-color="#FDE175"/>
<stop offset="1" stop-color="#F5BB37"/>
</linearGradient>
<linearGradient id="paint6_linear_0_6" x1="424.895" y1="247.477" x2="427.294" y2="251.805" gradientUnits="userSpaceOnUse">
<stop stop-color="#FA904A"/>
<stop offset="1" stop-color="#DB6742"/>
</linearGradient>
<linearGradient id="paint7_linear_0_6" x1="428.217" y1="253.403" x2="430.331" y2="257.216" gradientUnits="userSpaceOnUse">
<stop stop-color="#FA904A"/>
<stop offset="1" stop-color="#DB6742"/>
</linearGradient>
<linearGradient id="paint8_linear_0_6" x1="433.293" y1="256.411" x2="435.634" y2="260.634" gradientUnits="userSpaceOnUse">
<stop stop-color="#FA904A"/>
<stop offset="1" stop-color="#DB6742"/>
</linearGradient>
<linearGradient id="paint9_linear_0_6" x1="439.127" y1="256.451" x2="441.751" y2="261.186" gradientUnits="userSpaceOnUse">
<stop stop-color="#FA904A"/>
<stop offset="1" stop-color="#DB6742"/>
</linearGradient>
<linearGradient id="paint10_linear_0_6" x1="444.394" y1="256.289" x2="446.094" y2="259.356" gradientUnits="userSpaceOnUse">
<stop stop-color="#FA904A"/>
<stop offset="1" stop-color="#DB6742"/>
</linearGradient>
<linearGradient id="paint11_linear_0_6" x1="-1.51153" y1="22.7413" x2="20.8614" y2="25.3114" gradientUnits="userSpaceOnUse">
<stop stop-color="#FCEA91"/>
<stop offset="1" stop-color="#FFD757"/>
</linearGradient>
<linearGradient id="paint12_linear_0_6" x1="437.168" y1="239.982" x2="442.665" y2="249.899" gradientUnits="userSpaceOnUse">
<stop stop-color="white"/>
<stop offset="1" stop-color="#FCE5C2"/>
</linearGradient>
<linearGradient id="paint13_linear_0_6" x1="95.2095" y1="173.347" x2="95.2095" y2="280.888" gradientUnits="userSpaceOnUse">
<stop stop-color="#354970"/>
<stop offset="1" stop-color="#18233D"/>
</linearGradient>
<linearGradient id="paint14_linear_0_6" x1="354.095" y1="278.565" x2="354.095" y2="571.065" gradientUnits="userSpaceOnUse">
<stop stop-color="#354970"/>
<stop offset="1" stop-color="#18233D"/>
</linearGradient>
<linearGradient id="paint15_linear_0_6" x1="383.995" y1="287.665" x2="383.995" y2="571.065" gradientUnits="userSpaceOnUse">
<stop stop-color="#354970"/>
<stop offset="1" stop-color="#18233D"/>
</linearGradient>
<linearGradient id="paint16_linear_0_6" x1="374.091" y1="241.735" x2="427.61" y2="248.405" gradientUnits="userSpaceOnUse">
<stop stop-color="#FCEA91"/>
<stop offset="1" stop-color="#FFD757"/>
</linearGradient>
<linearGradient id="paint17_linear_0_6" x1="414.119" y1="200.296" x2="414.326" y2="185.699" gradientUnits="userSpaceOnUse">
<stop stop-color="#FFDD67"/>
<stop offset="1" stop-color="#F5BB37"/>
</linearGradient>
<linearGradient id="paint18_linear_0_6" x1="405.653" y1="247.81" x2="417.564" y2="251.08" gradientUnits="userSpaceOnUse">
<stop stop-color="#FDE175"/>
<stop offset="1" stop-color="#F5BB37"/>
</linearGradient>
<linearGradient id="paint19_linear_0_6" x1="424.895" y1="247.477" x2="427.294" y2="251.805" gradientUnits="userSpaceOnUse">
<stop stop-color="#FA904A"/>
<stop offset="1" stop-color="#DB6742"/>
</linearGradient>
<linearGradient id="paint20_linear_0_6" x1="428.217" y1="253.403" x2="430.331" y2="257.216" gradientUnits="userSpaceOnUse">
<stop stop-color="#FA904A"/>
<stop offset="1" stop-color="#DB6742"/>
</linearGradient>
<linearGradient id="paint21_linear_0_6" x1="433.293" y1="256.411" x2="435.634" y2="260.634" gradientUnits="userSpaceOnUse">
<stop stop-color="#FA904A"/>
<stop offset="1" stop-color="#DB6742"/>
</linearGradient>
<linearGradient id="paint22_linear_0_6" x1="439.127" y1="256.451" x2="441.751" y2="261.186" gradientUnits="userSpaceOnUse">
<stop stop-color="#FA904A"/>
<stop offset="1" stop-color="#DB6742"/>
</linearGradient>
<linearGradient id="paint23_linear_0_6" x1="444.394" y1="256.289" x2="446.094" y2="259.356" gradientUnits="userSpaceOnUse">
<stop stop-color="#FA904A"/>
<stop offset="1" stop-color="#DB6742"/>
</linearGradient>
<linearGradient id="paint24_linear_0_6" x1="-1.51153" y1="22.7413" x2="20.8614" y2="25.3114" gradientUnits="userSpaceOnUse">
<stop stop-color="#FCEA91"/>
<stop offset="1" stop-color="#FFD757"/>
</linearGradient>
<linearGradient id="paint25_linear_0_6" x1="437.168" y1="239.982" x2="442.665" y2="249.899" gradientUnits="userSpaceOnUse">
<stop stop-color="white"/>
<stop offset="1" stop-color="#FCE5C2"/>
</linearGradient>
</defs>
</svg>
